<?xml version="1.0" encoding="UTF-8"?>
<!DOCTYPE svg PUBLIC "-//W3C//DTD SVG 1.1//EN" "http://www.w3.org/Graphics/SVG/1.1/DTD/svg11.dtd">
<svg xmlns="http://www.w3.org/2000/svg" version="1.1" width="200px" height="200px" style="shape-rendering:geometricPrecision; text-rendering:geometricPrecision; image-rendering:optimizeQuality; fill-rule:evenodd; clip-rule:evenodd" xmlns:xlink="http://www.w3.org/1999/xlink">
<g><path style="opacity:0.948" fill="#fefffe" d="M 17.5,9.5 C 72.1677,9.33334 126.834,9.50001 181.5,10C 183.96,11.4578 186.127,13.2911 188,15.5C 189.658,70.4173 189.991,125.417 189,180.5C 187.969,183.539 186.135,186.039 183.5,188C 128.225,189.654 72.8914,189.987 17.5,189C 15.04,187.542 12.8734,185.709 11,183.5C 9.34197,128.249 9.00864,72.916 10,17.5C 11.6904,13.9791 14.1904,11.3124 17.5,9.5 Z M 27.5,18.5 C 75.5012,18.3333 123.501,18.5 171.5,19C 176.099,20.5981 178.932,23.7647 180,28.5C 180.667,75.8333 180.667,123.167 180,170.5C 178.833,175.667 175.667,178.833 170.5,180C 123.167,180.667 75.8333,180.667 28.5,180C 23.3333,178.833 20.1667,175.667 19,170.5C 18.3333,123.167 18.3333,75.8333 19,28.5C 20.2613,23.7452 23.0947,20.4118 27.5,18.5 Z M 150.5,30.5 C 154.514,30.3345 158.514,30.5012 162.5,31C 163,31.5 163.5,32 164,32.5C 164.667,42.5 164.667,52.5 164,62.5C 159,65.1667 154,65.1667 149,62.5C 148.333,52.5 148.333,42.5 149,32.5C 149.717,31.9558 150.217,31.2891 150.5,30.5 Z"/></g>
<g><path style="opacity:0.823" fill="#fefffe" d="M 144.5,25.5 C 152.752,25.1842 160.919,25.5175 169,26.5C 170.629,39.7385 170.962,53.0719 170,66.5C 169.535,67.9308 168.701,69.0975 167.5,70C 160.167,70.6667 152.833,70.6667 145.5,70C 145,69.5 144.5,69 144,68.5C 142.89,61.5756 142.39,54.5756 142.5,47.5C 142.667,41.5 142.833,35.5 143,29.5C 143.41,28.0993 143.91,26.766 144.5,25.5 Z M 150.5,30.5 C 150.217,31.2891 149.717,31.9558 149,32.5C 148.333,42.5 148.333,52.5 149,62.5C 154,65.1667 159,65.1667 164,62.5C 164.667,52.5 164.667,42.5 164,32.5C 163.5,32 163,31.5 162.5,31C 158.514,30.5012 154.514,30.3345 150.5,30.5 Z"/></g>
<g><path style="opacity:0.711" fill="#fefffe" d="M 38.5,28.5 C 40.6807,28.2837 42.3474,29.117 43.5,31C 39.0374,36.114 34.7041,41.2807 30.5,46.5C 29.1667,45.8333 28.1667,44.8333 27.5,43.5C 31.6023,38.7441 35.2689,33.7441 38.5,28.5 Z"/></g>
<g><path style="opacity:0.708" fill="#fefffe" d="M 49.5,28.5 C 53.3618,28.8326 54.1952,30.4993 52,33.5C 45.3106,41.355 38.8106,49.355 32.5,57.5C 30.6351,58.6662 28.9684,58.3329 27.5,56.5C 34.4758,46.8608 41.8091,37.5275 49.5,28.5 Z"/></g>
<g><path style="opacity:0.961" fill="#fefffe" d="M 90.5,61.5 C 96.5,61.5 102.5,61.5 108.5,61.5C 108.5,71.8333 108.5,82.1667 108.5,92.5C 102.5,92.5 96.5,92.5 90.5,92.5C 90.5,82.1667 90.5,71.8333 90.5,61.5 Z"/></g>
<g><path style="opacity:0.883" fill="#fefffe" d="M 50.5,124.5 C 60.1724,124.334 69.8391,124.5 79.5,125C 80.4732,130.407 80.8066,135.907 80.5,141.5C 70.1667,141.5 59.8333,141.5 49.5,141.5C 49.2143,135.741 49.5476,130.075 50.5,124.5 Z"/></g>
<g><path style="opacity:0.883" fill="#fefffe" d="M 119.5,124.5 C 129.172,124.334 138.839,124.5 148.5,125C 149.473,130.407 149.807,135.907 149.5,141.5C 139.167,141.5 128.833,141.5 118.5,141.5C 118.214,135.741 118.548,130.075 119.5,124.5 Z"/></g>
</svg>
