<?xml version="1.0" encoding="UTF-8"?>
<!DOCTYPE svg PUBLIC "-//W3C//DTD SVG 1.1//EN" "http://www.w3.org/Graphics/SVG/1.1/DTD/svg11.dtd">
<svg xmlns="http://www.w3.org/2000/svg" version="1.1" width="132px" height="132px" style="shape-rendering:geometricPrecision; text-rendering:geometricPrecision; image-rendering:optimizeQuality; fill-rule:evenodd; clip-rule:evenodd" xmlns:xlink="http://www.w3.org/1999/xlink">
<g><path style="opacity:1" fill="#e4e4e4" d="M 49.5,28.5 C 56.253,26.7717 60.253,29.2717 61.5,36C 58.3211,44.1699 53.4878,45.3366 47,39.5C 45.8118,35.2586 46.6451,31.5919 49.5,28.5 Z"/></g>
<g><path style="opacity:1" fill="#e9e9e9" d="M 90.5,96.5 C 90.5,97.1667 90.1667,97.5 89.5,97.5C 87.629,97.1412 86.129,96.1412 85,94.5C 80.0748,87.5709 74.4081,81.2375 68,75.5C 66.2507,76.5532 64.7507,76.2199 63.5,74.5C 61.7211,72.6565 59.3878,71.9898 56.5,72.5C 53.1485,71.9916 50.1485,70.6582 47.5,68.5C 46.0256,69.4363 45.0256,70.7697 44.5,72.5C 51.3115,83.506 53.4782,95.506 51,108.5C 48.0042,113.211 44.6709,113.544 41,109.5C 40.6667,102.5 40.3333,95.5 40,88.5C 38.0797,85.6612 36.4131,82.6612 35,79.5C 29.8783,90.2432 23.3783,100.077 15.5,109C 8.83743,110.666 6.0041,108.166 7,101.5C 11.2807,94.8854 15.9474,88.5521 21,82.5C 23.7849,74.4417 26.9516,66.6084 30.5,59C 25.6195,55.3802 24.9528,51.3802 28.5,47C 32.6642,44.1681 37.1642,42.0014 42,40.5C 46.2597,41.4623 49.9264,43.4623 53,46.5C 62.8215,58.8109 72.1548,71.4776 81,84.5C 85.2048,87.8498 88.3714,91.8498 90.5,96.5 Z M 50.5,58.5 C 53.6005,61.8354 56.6005,65.3354 59.5,69C 55.1237,68.4858 51.1237,66.8191 47.5,64C 48.6394,62.2196 49.6394,60.3863 50.5,58.5 Z"/></g>
<g><path style="opacity:1" fill="#929292" d="M 56.5,72.5 C 59.3878,71.9898 61.7211,72.6565 63.5,74.5C 61.0479,73.9346 58.7146,73.2679 56.5,72.5 Z"/></g>
<g><path style="opacity:1" fill="#656565" d="M 110.5,96.5 C 112.807,97.405 112.807,98.7383 110.5,100.5C 109.708,99.3002 109.708,97.9669 110.5,96.5 Z"/></g>
<g><path style="opacity:1" fill="#797979" d="M 120.5,98.5 C 121.239,98.369 121.906,98.5357 122.5,99C 121.534,100.678 120.201,101.345 118.5,101C 119.381,100.292 120.047,99.4584 120.5,98.5 Z"/></g>
<g><path style="opacity:1" fill="#707070" d="M 90.5,96.5 C 93.4347,99.9378 96.6014,103.271 100,106.5C 101.289,108.055 101.956,109.721 102,111.5C 97.9965,106.665 93.8298,101.998 89.5,97.5C 90.1667,97.5 90.5,97.1667 90.5,96.5 Z"/></g>
<g><path style="opacity:1" fill="#4f4f4f" d="M 103.5,100.5 C 105.973,100.947 106.14,101.947 104,103.5C 103.517,102.552 103.351,101.552 103.5,100.5 Z"/></g>
<g><path style="opacity:1" fill="#686868" d="M 116.5,104.5 C 127.837,100.332 128.171,100.999 117.5,106.5C 116.702,106.043 116.369,105.376 116.5,104.5 Z"/></g>
<g><path style="opacity:1" fill="#6e6e6e" d="M 116.5,104.5 C 113.215,105.089 112.882,106.256 115.5,108C 114.328,108.419 113.328,109.085 112.5,110C 111.216,110.684 110.049,110.517 109,109.5C 107.416,110.861 105.582,111.528 103.5,111.5C 103.201,109.396 103.534,107.396 104.5,105.5C 105.192,106.025 105.692,106.692 106,107.5C 106.592,104.6 108.092,102.767 110.5,102C 108.912,103.987 108.079,106.154 108,108.5C 110.695,106.306 113.528,104.306 116.5,102.5C 117.463,102.97 117.463,103.637 116.5,104.5 Z"/></g>
</svg>
